<svg width="128" height="128" viewBox="0 0 128 128" fill="none" xmlns="http://www.w3.org/2000/svg">
<rect x="7.90577" y="0.376471" width="119.718" height="119.718" fill="#091A3D" stroke="#4B608D" stroke-width="0.752941"/>
<rect x="0.376471" y="7.90577" width="119.718" height="119.718" fill="#091A3D" stroke="#4B608D" stroke-width="0.752941"/>
<path d="M27.0166 90.7562V65.1334C27.042 64.9788 27.03 64.8203 26.9819 64.6712C26.9338 64.522 26.8507 64.3864 26.7397 64.2756C26.6287 64.1648 26.4929 64.082 26.3434 64.0339C26.194 63.9859 26.0352 63.974 25.8802 63.9993H22.9443V59.1157H29.697C32.1219 59.1157 32.9592 60.201 32.9592 61.5847V62.5614C32.972 62.6852 32.9534 62.8103 32.9048 62.9249H33.0081C33.5113 62.0825 34.157 61.3335 34.9164 60.711C36.7461 59.2005 39.0677 58.4127 41.4408 58.4971C48.5578 58.4971 53.0976 64.1079 53.0976 72.2364C53.0976 80.5765 47.9924 85.9756 41.082 85.9756C39.0174 86.0329 36.9959 85.3796 35.3569 84.1253C34.6638 83.5883 34.0409 82.9667 33.5029 82.2749H33.3996L33.5029 82.8881C33.5471 83.4295 33.5634 83.9729 33.5518 84.516V90.7399H37.3576V95.6235H23.1781V90.7399L27.0166 90.7562ZM39.9076 80.4463C43.5177 80.4463 46.5081 77.5107 46.5081 72.3069C46.5081 67.3148 43.8766 64.0753 39.9565 64.0753C36.504 64.0753 33.356 66.5985 33.356 72.3612C33.3778 76.4526 35.5526 80.468 39.9022 80.468L39.9076 80.4463Z" fill="#E7ECF6"/>
<path d="M56.3221 80.4843H60.1279V64.0156H56.0557V59.132H66.674V80.4843H70.4364V85.3679H56.3004L56.3221 80.4843ZM60.0845 48.8384H66.6849V54.6553H60.0845V48.8384Z" fill="#E7ECF6"/>
<path d="M74.4706 64.0157H70.4473V59.1321H74.6989V51.9749H81.0384V59.1321H87.0191V64.0157H81.0384V75.0798C81.0384 79.6107 84.4419 79.8441 86.3014 79.8441C86.6602 79.8441 87.6389 79.8441 87.6389 79.8441V85.6556H85.4641C81.7507 85.6556 74.4814 84.5703 74.4814 75.7798L74.4706 64.0157Z" fill="#E7ECF6"/>
<path d="M97.621 79.8167H91.0205V85.6336H97.621V79.8167Z" fill="#1CE7C2"/>
<path d="M24.8645 51.3909V46.5398H22.5889V44.6871H23.4937C24.6396 44.6871 25.0573 44.0982 25.0573 43.0112V41.512H27.2526V44.7246H30.5777V46.5773H27.2526V51.15C27.2526 52.162 27.5792 52.8313 28.6661 52.8313C29.2928 52.8269 29.9179 52.7696 30.5348 52.6599L30.5937 54.5875C29.7618 54.7371 28.9168 54.8017 28.0718 54.7803C26.0478 54.791 24.8645 53.6077 24.8645 51.3909Z" fill="#E7ECF6"/>
<path d="M41.3555 48.1626V54.62H38.9514V48.8319C38.9514 47.2844 38.266 46.5241 36.8685 46.5241C36.5233 46.4923 36.1758 46.5494 35.859 46.69C35.5422 46.8306 35.2666 47.05 35.0587 47.3273C34.6916 47.872 34.5043 48.518 34.5232 49.1745V54.62H32.0977V39.906H34.5232V45.7959C34.9098 45.3652 35.388 45.0267 35.9227 44.8052C36.4574 44.5838 37.0349 44.485 37.6128 44.5162C40.1186 44.5162 41.3555 45.8762 41.3555 48.1626Z" fill="#E7ECF6"/>
<path d="M52.8317 50.3204H45.2498C45.4051 52.2105 46.7223 52.9976 48.4196 52.9976C49.0159 53.0031 49.6072 52.8894 50.1589 52.6632C50.7105 52.437 51.2115 52.1029 51.6323 51.6804L52.7032 53.2867C51.489 54.2833 49.9578 54.8114 48.3875 54.7753C44.7786 54.7753 42.7171 52.7673 42.7171 49.6404C42.6861 48.9606 42.7935 48.2817 43.0328 47.6448C43.2721 47.0079 43.6384 46.4262 44.1093 45.9351C44.6317 45.4387 45.2507 45.0552 45.9278 44.8083C46.6048 44.5614 47.3255 44.4565 48.0448 44.5001C51.0808 44.5001 52.9334 46.2189 52.9334 49.0674C52.9335 49.4871 52.8995 49.9062 52.8317 50.3204ZM45.2498 48.7569H50.4061C50.4197 48.6628 50.4197 48.5672 50.4061 48.4731C50.4061 47.1505 49.4691 46.2189 47.9966 46.2189C46.5241 46.2189 45.4479 47.097 45.2498 48.7569V48.7569Z" fill="#E7ECF6"/>
</svg>
