<svg width="339" height="171" viewBox="0 0 339 171" fill="none" xmlns="http://www.w3.org/2000/svg">
<rect x="-0.5" y="0.5" width="155" height="70" transform="matrix(-1 0 0 1 163 92)" fill="#091A3D" stroke="#4B608D"/>
<rect x="-0.5" y="0.5" width="155" height="70" transform="matrix(-1 0 0 1 155 100)" fill="#091A3D" stroke="#4B608D"/>
<rect x="-0.5" y="0.5" width="155" height="70" transform="matrix(-1 0 0 1 163 0)" fill="#091A3D" stroke="#4B608D"/>
<rect x="-0.5" y="0.5" width="155" height="70" transform="matrix(-1 0 0 1 155 8)" fill="#091A3D" stroke="#4B608D"/>
<rect x="-0.5" y="0.5" width="155" height="70" transform="matrix(-1 0 0 1 338 92)" fill="#091A3D" stroke="#4B608D"/>
<rect x="-0.5" y="0.5" width="155" height="70" transform="matrix(-1 0 0 1 330 100)" fill="#091A3D" stroke="#4B608D"/>
<rect x="-0.5" y="0.5" width="155" height="70" transform="matrix(-1 0 0 1 338 0)" fill="#091A3D" stroke="#4B608D"/>
<rect x="-0.5" y="0.5" width="155" height="70" transform="matrix(-1 0 0 1 330 8)" fill="#091A3D" stroke="#4B608D"/>
<path d="M51.9279 47.1639L49.7825 49.4643C49.7361 49.5143 49.6799 49.5542 49.6174 49.5814C49.5549 49.6087 49.4875 49.6229 49.4193 49.6229H39.2493C39.2008 49.6229 39.1533 49.6087 39.1127 49.5821C39.0722 49.5556 39.0402 49.5177 39.0208 49.4733C39.0014 49.4288 38.9954 49.3797 39.0035 49.3318C39.0116 49.284 39.0335 49.2396 39.0664 49.204L41.2094 46.9036C41.2558 46.8537 41.312 46.8138 41.3745 46.7865C41.437 46.7592 41.5044 46.7451 41.5726 46.745H51.7426C51.7915 46.744 51.8397 46.7575 51.881 46.7838C51.9223 46.8101 51.955 46.848 51.9747 46.8928C51.9946 46.9376 52.0006 46.9872 51.9923 47.0355C51.9839 47.0837 51.9615 47.1284 51.9279 47.1639ZM49.7825 42.5305C49.7359 42.4808 49.6797 42.4411 49.6172 42.4138C49.5548 42.3866 49.4874 42.3723 49.4193 42.372H39.2493C39.2008 42.372 39.1533 42.3861 39.1127 42.4127C39.0722 42.4393 39.0402 42.4771 39.0208 42.5216C39.0014 42.5661 38.9954 42.6152 39.0035 42.663C39.0116 42.7108 39.0335 42.7553 39.0664 42.7909L41.2094 45.0924C41.256 45.1422 41.3122 45.1819 41.3747 45.2092C41.4371 45.2364 41.5045 45.2507 41.5726 45.251H51.7426C51.7911 45.2508 51.8383 45.2364 51.8787 45.2098C51.9192 45.1831 51.9509 45.1452 51.9701 45.1008C51.9894 45.0564 51.9953 45.0074 51.9871 44.9596C51.979 44.9119 51.9572 44.8676 51.9242 44.8321L49.7825 42.5305ZM39.2493 40.8779H49.4193C49.4875 40.8779 49.5549 40.8637 49.6174 40.8364C49.6799 40.8092 49.7361 40.7693 49.7825 40.7193L51.9279 38.419C51.9615 38.3834 51.9839 38.3387 51.9923 38.2905C52.0006 38.2422 51.9946 38.1926 51.9747 38.1478C51.955 38.103 51.9223 38.0651 51.881 38.0388C51.8397 38.0125 51.7915 37.999 51.7426 38.0001H41.5726C41.5044 38.0001 41.437 38.0142 41.3745 38.0415C41.312 38.0688 41.2558 38.1087 41.2094 38.1587L39.0664 40.459C39.0335 40.4946 39.0116 40.539 39.0035 40.5868C38.9954 40.6347 39.0014 40.6838 39.0208 40.7283C39.0402 40.7727 39.0722 40.8106 39.1127 40.8371C39.1533 40.8637 39.2008 40.8779 39.2493 40.8779Z" fill="#F9F7F4"/>
<path d="M64.3273 42.9157H58.8864V41.1238H65.7415V39.3319H58.8682C58.6333 39.3307 58.4006 39.3757 58.1832 39.4643C57.9658 39.553 57.7678 39.6837 57.601 39.8488C57.434 40.014 57.3012 40.2104 57.2101 40.4269C57.1191 40.6434 57.0715 40.8756 57.0703 41.1105V42.9265C57.0713 43.1616 57.1185 43.3941 57.2094 43.6109C57.3003 43.8276 57.433 44.0243 57.6 44.1897C57.7671 44.3552 57.965 44.486 58.1826 44.5749C58.4002 44.6637 58.6332 44.7088 58.8682 44.7075H64.3164V46.4994H57.1999V48.2912H64.3273C64.5622 48.2925 64.7949 48.2475 65.0124 48.1588C65.2298 48.0701 65.4276 47.9395 65.5946 47.7743C65.7616 47.6092 65.8944 47.4128 65.9854 47.1963C66.0765 46.9798 66.124 46.7475 66.1253 46.5127V44.6966C66.1243 44.4616 66.0771 44.229 65.9861 44.0123C65.8952 43.7955 65.7625 43.5988 65.5956 43.4334C65.4285 43.268 65.2305 43.1371 65.013 43.0483C64.7954 42.9595 64.5623 42.9144 64.3273 42.9157Z" fill="#F9F7F4"/>
<path d="M74.8678 39.3318H69.4063C69.171 39.3299 68.9377 39.3745 68.7197 39.4629C68.5017 39.5513 68.3033 39.6818 68.1359 39.847C67.9683 40.0122 67.8351 40.2089 67.7438 40.4257C67.6524 40.6425 67.6047 40.8751 67.6035 41.1104V46.5126C67.6047 46.7478 67.6524 46.9805 67.7438 47.1973C67.8351 47.4141 67.9683 47.6107 68.1359 47.776C68.3033 47.9412 68.5017 48.0717 68.7197 48.1601C68.9377 48.2485 69.171 48.2931 69.4063 48.2911H74.8678C75.1027 48.2924 75.3354 48.2474 75.5528 48.1587C75.7703 48.07 75.9682 47.9394 76.1351 47.7742C76.302 47.6091 76.4348 47.4127 76.5259 47.1962C76.6169 46.9797 76.6645 46.7474 76.6657 46.5126V41.1104C76.6645 40.8756 76.6169 40.6433 76.5259 40.4268C76.4348 40.2103 76.302 40.0139 76.1351 39.8487C75.9682 39.6836 75.7703 39.5529 75.5528 39.4643C75.3354 39.3756 75.1027 39.3306 74.8678 39.3318ZM74.8545 46.4993H69.4196V41.1237H74.8521L74.8545 46.4993Z" fill="#F9F7F4"/>
<path d="M93.9981 39.3319H88.671C88.4361 39.3306 88.2034 39.3756 87.9859 39.4643C87.7685 39.553 87.5705 39.6837 87.4037 39.8488C87.2367 40.014 87.1039 40.2104 87.0129 40.4269C86.9218 40.6433 86.8743 40.8756 86.873 41.1105V48.2912H88.6891V45.348H93.9921V48.2912H95.8081V41.1105C95.8069 40.8746 95.759 40.6413 95.6672 40.424C95.5753 40.2068 95.4415 40.0098 95.2732 39.8445C95.1051 39.6792 94.9058 39.5488 94.6869 39.4608C94.468 39.3729 94.234 39.3291 93.9981 39.3319ZM93.9848 43.5561H88.6819V41.1238H93.9848V43.5561Z" fill="#F9F7F4"/>
<path d="M115.201 39.3319H109.874C109.639 39.3307 109.407 39.3757 109.189 39.4643C108.972 39.553 108.774 39.6837 108.607 39.8488C108.44 40.014 108.307 40.2104 108.216 40.4269C108.125 40.6434 108.077 40.8756 108.076 41.1105V48.2912H109.892V45.348H115.183V48.2912H116.999V41.1105C116.998 40.8756 116.95 40.6434 116.859 40.4269C116.768 40.2104 116.635 40.014 116.468 39.8488C116.302 39.6837 116.104 39.553 115.886 39.4643C115.669 39.3757 115.436 39.3307 115.201 39.3319ZM115.183 43.5561H109.88V41.1238H115.183V43.5561Z" fill="#F9F7F4"/>
<path d="M104.653 46.4994H103.926L101.329 40.0826C101.24 39.8612 101.087 39.6715 100.89 39.5377C100.692 39.404 100.459 39.3323 100.22 39.3319H98.6088C98.4521 39.3311 98.2969 39.3612 98.152 39.4204C98.0069 39.4796 97.8751 39.5668 97.7637 39.6769C97.6524 39.7871 97.5639 39.9181 97.5033 40.0625C97.4426 40.2069 97.411 40.3618 97.4102 40.5184V48.2912H99.2262V41.1238H99.9527L102.548 47.5406C102.639 47.7615 102.793 47.9505 102.992 48.0833C103.19 48.2162 103.424 48.2869 103.662 48.2864H105.274C105.43 48.2872 105.586 48.2571 105.731 48.1979C105.876 48.1387 106.007 48.0515 106.119 47.9414C106.23 47.8312 106.319 47.7002 106.379 47.5558C106.44 47.4114 106.472 47.2565 106.472 47.0999V39.3319H104.653V46.4994Z" fill="#F9F7F4"/>
<path d="M80.0856 39.3319H78.2695V46.5127C78.2707 46.748 78.3186 46.9808 78.41 47.1977C78.5014 47.4145 78.6347 47.6112 78.8022 47.7765C78.9698 47.9417 79.1685 48.0722 79.3865 48.1605C79.6047 48.2489 79.8381 48.2933 80.0735 48.2912H85.5217V46.4993H80.0856V39.3319Z" fill="#F9F7F4"/>
<path fill-rule="evenodd" clip-rule="evenodd" d="M222.582 46.6007L221.522 45.5802C221.12 45.9373 220.713 46.2202 220.302 46.4286C219.891 46.6368 219.399 46.7409 218.827 46.7409C218.38 46.7409 217.967 46.6581 217.587 46.4922C217.207 46.3264 216.878 46.099 216.601 45.8098C216.324 45.5207 216.11 45.1827 215.958 44.7958C215.806 44.409 215.73 43.9943 215.73 43.5524C215.73 43.1101 215.806 42.6976 215.958 42.3149C216.11 41.9324 216.324 41.5987 216.601 41.3137C216.878 41.0289 217.207 40.8037 217.587 40.6378C217.967 40.4721 218.38 40.3891 218.827 40.3891C219.363 40.3891 219.842 40.4912 220.262 40.6953C220.682 40.8992 221.08 41.1671 221.455 41.4987L222.515 40.3382C222.291 40.1341 222.054 39.947 221.804 39.7769C221.554 39.6068 221.281 39.46 220.986 39.3368C220.691 39.2135 220.367 39.1179 220.014 39.05C219.661 38.9818 219.27 38.9478 218.841 38.9478C218.126 38.9478 217.473 39.0691 216.883 39.3114C216.293 39.5537 215.783 39.8853 215.354 40.3062C214.925 40.7271 214.592 41.2181 214.355 41.7794C214.118 42.3406 214 42.9401 214 43.5778C214 44.224 214.121 44.8277 214.362 45.389C214.603 45.95 214.936 46.4368 215.361 46.8493C215.786 47.2616 216.288 47.5869 216.869 47.825C217.451 48.0632 218.085 48.1821 218.774 48.1821C219.212 48.1821 219.612 48.146 219.974 48.0737C220.336 48.0014 220.669 47.8952 220.973 47.755C221.277 47.6146 221.56 47.4487 221.824 47.2575C222.088 47.0661 222.34 46.8471 222.582 46.6007Z" fill="#F9F7F4"/>
<path fill-rule="evenodd" clip-rule="evenodd" d="M243.858 41.476C243.858 41.179 243.991 40.9266 244.258 40.7189C244.525 40.5108 244.898 40.4069 245.378 40.4069C245.805 40.4069 246.227 40.4856 246.645 40.6425C247.063 40.7994 247.486 41.0264 247.912 41.3232L248.792 40.1398C248.312 39.7749 247.799 39.4971 247.252 39.3064C246.705 39.1155 246.09 39.02 245.405 39.02C244.943 39.02 244.516 39.0815 244.127 39.2046C243.736 39.3275 243.403 39.5035 243.125 39.7325C242.847 39.9617 242.629 40.2352 242.469 40.5534C242.311 40.8715 242.231 41.2257 242.231 41.616C242.231 42.0316 242.3 42.3838 242.438 42.6722C242.576 42.9606 242.778 43.2067 243.04 43.4103C243.302 43.6139 243.629 43.7835 244.016 43.9194C244.405 44.0552 244.847 44.1779 245.347 44.2883C245.783 44.3901 246.136 44.4876 246.41 44.5809C246.681 44.6743 246.894 44.774 247.052 44.88C247.208 44.9861 247.314 45.1026 247.372 45.2299C247.43 45.3573 247.459 45.5013 247.459 45.6625C247.459 46.0105 247.31 46.2863 247.012 46.4897C246.714 46.6935 246.312 46.7952 245.805 46.7952C245.218 46.7952 244.694 46.6954 244.232 46.4961C243.769 46.2967 243.311 46.0105 242.858 45.6371L241.871 46.757C242.431 47.2405 243.04 47.599 243.698 47.8323C244.356 48.0657 245.045 48.1822 245.765 48.1822C246.254 48.1822 246.703 48.1228 247.112 48.0042C247.519 47.8852 247.87 47.7113 248.159 47.4823C248.45 47.2532 248.677 46.9734 248.841 46.6425C249.004 46.3117 249.086 45.9341 249.086 45.5099C249.086 45.1366 249.021 44.8121 248.892 44.5364C248.763 44.2607 248.572 44.0191 248.323 43.811C248.074 43.6033 247.759 43.4271 247.381 43.2829C247.003 43.1389 246.568 43.0073 246.079 42.8885C245.632 42.7867 245.265 42.689 244.974 42.5958C244.685 42.5026 244.458 42.4008 244.291 42.2904C244.127 42.1801 244.014 42.0613 243.951 41.9341C243.889 41.8067 243.858 41.6541 243.858 41.476Z" fill="#F9F7F4"/>
<path fill-rule="evenodd" clip-rule="evenodd" d="M262.115 41.6021V47.9658H263.744V39.0922H261.994L259.149 43.2882L256.304 39.0922H254.555V47.9658H256.184V41.6274L259.109 45.7854H259.163L262.115 41.6021Z" fill="#F9F7F4"/>
<path d="M277.434 43.5778C277.434 44.0115 277.356 44.4217 277.199 44.8088C277.043 45.1956 276.827 45.5313 276.55 45.8161C276.274 46.1009 275.941 46.3264 275.553 46.4922C275.165 46.6581 274.739 46.7409 274.275 46.7409C273.811 46.7409 273.383 46.6559 272.99 46.4859C272.598 46.3157 272.261 46.0861 271.98 45.7972C271.699 45.5079 271.48 45.17 271.324 44.7831C271.168 44.3963 271.09 43.9858 271.09 43.5524C271.09 43.1185 271.168 42.7083 271.324 42.3215C271.48 41.9344 271.696 41.5987 271.973 41.3137C272.25 41.0289 272.582 40.8037 272.97 40.6378C273.358 40.4721 273.784 40.3891 274.248 40.3891C274.712 40.3891 275.141 40.4741 275.533 40.6443C275.926 40.8143 276.263 41.0439 276.544 41.333C276.825 41.6219 277.043 41.9601 277.199 42.3469C277.356 42.7338 277.434 43.1442 277.434 43.5778ZM279.16 43.5524C279.16 42.9231 279.04 42.3278 278.799 41.7665C278.558 41.2055 278.223 40.7164 277.795 40.2998C277.367 39.883 276.854 39.5537 276.256 39.3114C275.658 39.0691 274.998 38.9478 274.275 38.9478C273.552 38.9478 272.892 39.0711 272.294 39.3177C271.696 39.5643 271.179 39.898 270.742 40.3189C270.304 40.7398 269.966 41.231 269.725 41.7921C269.484 42.3533 269.363 42.9485 269.363 43.5778C269.363 44.207 269.484 44.802 269.725 45.3634C269.966 45.9247 270.3 46.4136 270.728 46.8302C271.157 47.2468 271.67 47.5764 272.268 47.8187C272.865 48.061 273.525 48.1821 274.248 48.1821C274.971 48.1821 275.631 48.0587 276.229 47.8123C276.827 47.5657 277.344 47.232 277.782 46.8109C278.219 46.3902 278.558 45.8991 278.799 45.3379C279.04 44.7767 279.16 44.1815 279.16 43.5524Z" fill="#F9F7F4"/>
<path fill-rule="evenodd" clip-rule="evenodd" d="M286.006 41.476C286.006 41.179 286.14 40.9266 286.406 40.7189C286.673 40.5108 287.047 40.4069 287.527 40.4069C287.953 40.4069 288.376 40.4856 288.794 40.6425C289.212 40.7994 289.634 41.0264 290.061 41.3232L290.941 40.1398C290.461 39.7749 289.947 39.4971 289.4 39.3064C288.854 39.1155 288.238 39.02 287.553 39.02C287.091 39.02 286.664 39.0815 286.275 39.2046C285.884 39.3275 285.551 39.5035 285.273 39.7325C284.995 39.9617 284.778 40.2352 284.617 40.5534C284.46 40.8715 284.38 41.2257 284.38 41.616C284.38 42.0316 284.448 42.3838 284.586 42.6722C284.724 42.9606 284.926 43.2067 285.189 43.4103C285.451 43.6139 285.778 43.7835 286.164 43.9194C286.553 44.0552 286.996 44.1779 287.496 44.2883C287.931 44.3901 288.285 44.4876 288.558 44.5809C288.829 44.6743 289.043 44.774 289.201 44.88C289.356 44.9861 289.463 45.1026 289.521 45.2299C289.578 45.3573 289.607 45.5013 289.607 45.6625C289.607 46.0105 289.458 46.2863 289.161 46.4897C288.863 46.6935 288.46 46.7952 287.953 46.7952C287.367 46.7952 286.842 46.6954 286.38 46.4961C285.918 46.2967 285.46 46.0105 285.006 45.6371L284.02 46.757C284.579 47.2405 285.189 47.599 285.847 47.8323C286.504 48.0657 287.193 48.1822 287.914 48.1822C288.403 48.1822 288.851 48.1228 289.261 48.0042C289.667 47.8852 290.018 47.7113 290.307 47.4823C290.599 47.2532 290.825 46.9734 290.99 46.6425C291.152 46.3117 291.234 45.9341 291.234 45.5099C291.234 45.1366 291.17 44.8121 291.041 44.5364C290.912 44.2607 290.721 44.0191 290.472 43.811C290.223 43.6033 289.907 43.4271 289.529 43.2829C289.152 43.1389 288.716 43.0073 288.227 42.8885C287.78 42.7867 287.413 42.689 287.122 42.5958C286.833 42.5026 286.607 42.4008 286.44 42.2904C286.275 42.1801 286.162 42.0613 286.1 41.9341C286.038 41.8067 286.006 41.6541 286.006 41.476Z" fill="#F9F7F4"/>
<path d="M233.76 40.8686L229.295 45.11C229.237 45.0039 229.185 44.8933 229.139 44.7786C228.983 44.3932 228.905 43.9844 228.905 43.5525C228.905 43.1203 228.983 42.7117 229.139 42.3263C229.295 41.9407 229.511 41.6062 229.788 41.3224C230.064 41.0386 230.396 40.8142 230.784 40.649C231.172 40.4839 231.598 40.4012 232.061 40.4012C232.525 40.4012 232.953 40.4859 233.345 40.6555C233.491 40.7184 233.629 40.7894 233.76 40.8686ZM233.366 46.4813C232.978 46.6466 232.552 46.729 232.088 46.729C231.625 46.729 231.196 46.6443 230.804 46.475C230.659 46.4119 230.52 46.3409 230.39 46.2615L234.855 42.0204C234.912 42.1264 234.964 42.2368 235.011 42.3516C235.167 42.737 235.245 43.1459 235.245 43.5779C235.245 44.0099 235.167 44.4186 235.011 44.8042C234.855 45.1896 234.639 45.524 234.362 45.8077C234.086 46.0915 233.754 46.316 233.366 46.4813ZM234.041 47.7964C234.639 47.5507 235.156 47.2183 235.593 46.7988C236.03 46.3796 236.368 45.8904 236.609 45.3313C236.85 44.7723 236.97 44.1793 236.97 43.5525C236.97 42.9256 236.85 42.3326 236.609 41.7734C236.466 41.4418 236.291 41.1357 236.082 40.8547L238.986 38.0961L237.832 37L234.919 39.7669C234.658 39.5976 234.374 39.4512 234.068 39.3276C233.47 39.0862 232.811 38.9653 232.088 38.9653C231.366 38.9653 230.706 39.0882 230.109 39.3339C229.511 39.5796 228.994 39.912 228.557 40.3313C228.12 40.7506 227.781 41.2399 227.54 41.7989C227.3 42.358 227.179 42.951 227.179 43.5779C227.179 44.2047 227.3 44.7975 227.54 45.3567C227.683 45.6884 227.859 45.9946 228.068 46.2758L225.164 49.034L226.318 50.1301L229.23 47.3633C229.492 47.5327 229.776 47.6791 230.082 47.8027C230.679 48.0441 231.339 48.1648 232.061 48.1648C232.784 48.1648 233.444 48.0419 234.041 47.7964Z" fill="#F9F7F4"/>
<path d="M100.848 139.77C101.306 139.46 101.764 139.15 102.222 138.84C102.464 139.204 102.68 139.568 102.922 139.904C103.933 141.305 105.549 141.481 106.721 141.009C108.5 140.309 108.85 138.059 107.328 136.914C106.654 136.415 105.859 136.051 105.105 135.688C104.189 135.257 103.273 134.839 102.505 134.165C101.036 132.886 100.875 130.703 102.141 129.302C102.828 128.548 103.717 128.224 104.701 128.116C106.061 127.982 107.355 128.157 108.432 129.073C108.796 129.383 109.092 129.787 109.456 130.191C109.025 130.488 108.688 130.757 108.311 130.959C108.109 131.067 107.92 130.946 107.786 130.743C107.153 129.8 106.25 129.41 105.132 129.491C104.593 129.531 104.094 129.666 103.677 130.016C102.788 130.757 102.747 132.118 103.663 132.832C104.27 133.303 104.984 133.653 105.671 134.044C106.546 134.543 107.462 134.96 108.311 135.499C109.685 136.388 110.184 137.735 109.941 139.312C109.699 140.888 108.715 141.912 107.22 142.383C105.051 143.07 102.383 142.599 100.969 139.931C100.902 139.918 100.875 139.851 100.848 139.77Z" fill="white"/>
<path d="M64.2573 142.289C63.6914 142.289 63.1795 142.289 62.6406 142.289C62.6406 137.695 62.6406 133.101 62.6406 128.493C62.681 128.48 62.7215 128.467 62.7619 128.467C64.2707 128.48 65.7661 128.44 67.2615 128.52C67.8677 128.547 68.4874 128.709 69.0398 128.952C70.5487 129.598 71.1414 130.972 71.0606 132.67C70.9528 135.229 69.1745 136.186 67.2884 136.361C66.4262 136.442 65.5371 136.402 64.6614 136.402C64.5267 136.402 64.4054 136.402 64.2303 136.402C64.2573 138.382 64.2573 140.322 64.2573 142.289ZM64.2842 129.868C64.2842 131.632 64.2842 133.276 64.2842 134.879C65.2677 134.879 66.2376 134.947 67.1941 134.866C68.5413 134.744 69.2419 134.098 69.3901 132.953C69.5921 131.35 69.0263 130.326 67.5444 130.083C66.4801 129.908 65.3754 129.935 64.2842 129.868Z" fill="white"/>
<path d="M47 142.302C49.2094 137.681 51.3919 133.101 53.6147 128.44C55.8376 133.088 58.0335 137.668 60.2429 142.302C59.6636 142.302 59.1517 142.316 58.6398 142.289C58.5455 142.289 58.4242 142.154 58.3838 142.046C57.9527 141.022 57.5216 139.985 57.104 138.948C57.0097 138.732 56.9153 138.651 56.6729 138.651C54.6386 138.665 52.6178 138.665 50.5835 138.651C50.341 138.651 50.2333 138.732 50.1524 138.948C49.7483 139.972 49.3037 140.996 48.8995 142.019C48.8187 142.221 48.7244 142.316 48.4819 142.302C47.9969 142.289 47.5254 142.302 47 142.302ZM50.853 137.237C52.7121 137.237 54.5308 137.237 56.3765 137.237C55.4469 135.297 54.5443 133.384 53.6013 131.39C52.6717 133.384 51.7691 135.283 50.853 137.237Z" fill="white"/>
<path d="M76.9743 129.976C75.3712 129.976 73.8084 129.976 72.2188 129.976C72.2188 129.477 72.2188 129.006 72.2188 128.494C75.9101 128.494 79.6148 128.494 83.3466 128.494C83.3466 128.979 83.3466 129.45 83.3466 129.962C81.7704 129.962 80.1941 129.962 78.6045 129.962C78.6045 134.085 78.6045 138.167 78.6045 142.275C78.0521 142.275 77.5267 142.275 76.9743 142.275C76.9743 138.193 76.9743 134.098 76.9743 129.976Z" fill="white"/>
<path d="M83.75 134.772C83.8982 134.165 84.006 133.626 84.1542 133.088C84.1811 133.02 84.3562 132.939 84.464 132.939C85.4879 132.926 86.4983 132.939 87.5221 132.939C88.6942 132.939 89.8528 132.926 91.0248 132.939C91.4694 132.953 91.8197 132.818 92.1026 132.454C92.6011 131.835 92.7493 131.835 93.2612 132.441C93.5576 132.805 93.8944 132.953 94.3659 132.939C95.5379 132.912 96.7235 132.939 97.8955 132.926C98.1111 132.926 98.2323 132.98 98.2728 133.195C98.3805 133.694 98.4883 134.192 98.6096 134.758C98.4344 134.758 98.3132 134.758 98.1919 134.758C96.5483 134.758 94.9182 134.745 93.2747 134.772C92.9244 134.772 92.6819 134.664 92.4663 134.394C91.9679 133.761 91.7793 133.586 91.1326 134.354C90.8632 134.677 90.5668 134.772 90.1761 134.758C88.1957 134.745 86.2019 134.745 84.2215 134.745C84.1137 134.772 83.9925 134.772 83.75 134.772Z" fill="white"/>
<path d="M83.8574 136.765C84.0864 136.765 84.2212 136.765 84.3559 136.765C85.7165 136.765 87.0637 136.752 88.4244 136.765C88.842 136.765 89.1923 136.671 89.4483 136.307C89.5156 136.213 89.5965 136.146 89.6773 136.051C89.9602 135.742 90.2162 135.715 90.4587 136.051C90.8628 136.644 91.3748 136.779 92.0618 136.765C94.0557 136.725 96.0495 136.752 98.0434 136.752C98.1646 136.752 98.2859 136.752 98.5284 136.752C98.3128 137.372 98.1242 137.938 97.9087 138.49C97.8817 138.544 97.747 138.584 97.6527 138.584C95.2412 138.584 92.8297 138.598 90.4183 138.584C90.2566 138.584 90.0815 138.476 89.9602 138.369C89.7851 138.22 89.6504 138.018 89.4887 137.857C89.2866 137.655 89.0576 137.641 88.842 137.843C88.8286 137.857 88.8286 137.857 88.8151 137.87C88.384 138.584 87.7239 138.665 86.956 138.625C86.242 138.571 85.5279 138.598 84.8005 138.625C84.5714 138.625 84.4502 138.544 84.3828 138.342C84.2212 137.83 84.0595 137.331 83.8574 136.765Z" fill="white"/>
<path d="M85.2871 130.959C88.1027 127.079 94.1247 126.958 97.0751 130.932C96.5496 130.932 96.0377 130.986 95.5393 130.905C95.3237 130.878 95.1351 130.609 94.9734 130.42C94.5019 129.908 94.3672 129.881 93.9226 130.407C93.5723 130.811 93.1951 130.973 92.6428 130.973C90.3391 130.946 88.0219 130.959 85.7182 130.959C85.5835 130.959 85.4488 130.959 85.2871 130.959Z" fill="white"/>
<path d="M85.7988 140.416C86.2434 140.403 86.4455 140.08 86.688 139.81C87.0652 139.379 87.2942 139.352 87.631 139.81C87.9813 140.309 88.4259 140.43 89.0051 140.416C91.3897 140.389 93.7877 140.403 96.1722 140.403C96.2935 140.403 96.4147 140.403 96.5494 140.403C94.1514 143.34 88.8165 143.784 85.7988 140.416Z" fill="white"/>
<path d="M235.76 130.161H237.852V139.139H242.994V141.144H235.76V130.161Z" fill="white"/>
<path d="M252.137 130.161H254.229V141.144H252.137V130.161Z" fill="white"/>
<path d="M264.246 130.161H267.733C268.453 130.161 269.139 130.312 269.79 130.615C270.441 130.905 271.016 131.3 271.516 131.8C272.015 132.3 272.411 132.881 272.701 133.543C272.992 134.206 273.137 134.909 273.137 135.653C273.137 136.397 272.992 137.1 272.701 137.762C272.411 138.425 272.015 139.006 271.516 139.505C271.016 140.005 270.441 140.406 269.79 140.708C269.139 140.999 268.453 141.144 267.733 141.144H264.246V130.161ZM267.733 139.139C268.163 139.139 268.575 139.046 268.97 138.86C269.377 138.674 269.732 138.425 270.034 138.111C270.348 137.797 270.592 137.431 270.766 137.012C270.952 136.582 271.045 136.129 271.045 135.653C271.045 135.176 270.952 134.729 270.766 134.31C270.592 133.88 270.348 133.508 270.034 133.195C269.732 132.881 269.377 132.631 268.97 132.445C268.575 132.259 268.163 132.166 267.733 132.166H266.338V139.139H267.733Z" fill="white"/>
<path d="M287.253 141.231C286.532 141.231 285.846 141.092 285.196 140.813C284.556 140.522 283.993 140.127 283.505 139.628C283.028 139.116 282.645 138.523 282.354 137.849C282.075 137.175 281.936 136.443 281.936 135.653C281.936 134.874 282.075 134.148 282.354 133.474C282.645 132.788 283.028 132.195 283.505 131.695C283.993 131.184 284.556 130.789 285.196 130.51C285.846 130.22 286.532 130.074 287.253 130.074C287.973 130.074 288.653 130.22 289.292 130.51C289.943 130.789 290.507 131.184 290.983 131.695C291.471 132.195 291.855 132.788 292.134 133.474C292.424 134.148 292.57 134.874 292.57 135.653C292.57 136.443 292.424 137.175 292.134 137.849C291.855 138.523 291.471 139.116 290.983 139.628C290.507 140.127 289.943 140.522 289.292 140.813C288.653 141.092 287.973 141.231 287.253 141.231ZM287.253 139.226C287.683 139.226 288.095 139.139 288.49 138.965C288.885 138.791 289.228 138.547 289.519 138.233C289.81 137.907 290.042 137.53 290.216 137.1C290.39 136.658 290.478 136.176 290.478 135.653C290.478 135.13 290.39 134.653 290.216 134.223C290.042 133.782 289.81 133.404 289.519 133.09C289.228 132.765 288.885 132.515 288.49 132.341C288.095 132.166 287.683 132.079 287.253 132.079C286.811 132.079 286.393 132.166 285.997 132.341C285.614 132.515 285.277 132.765 284.986 133.09C284.696 133.404 284.463 133.782 284.289 134.223C284.115 134.653 284.027 135.13 284.027 135.653C284.027 136.176 284.115 136.658 284.289 137.1C284.463 137.53 284.696 137.907 284.986 138.233C285.277 138.547 285.614 138.791 285.997 138.965C286.393 139.139 286.811 139.226 287.253 139.226Z" fill="white"/>
<path d="M215.141 134.99L214.999 135.209C213.394 137.669 213.753 140.892 215.86 142.957C217.099 144.171 218.724 144.779 220.349 144.779C220.349 144.779 220.349 144.779 215.141 134.99Z" fill="white"/>
<path opacity="0.6" d="M220.347 137.965L215.139 134.99C220.347 144.779 220.347 144.779 220.347 144.779C220.347 142.647 220.347 140.204 220.347 137.965Z" fill="white"/>
<path opacity="0.6" d="M225.564 134.99L225.706 135.209C227.31 137.669 226.952 140.892 224.845 142.957C223.605 144.171 221.98 144.779 220.355 144.779C220.355 144.779 220.355 144.779 225.564 134.99Z" fill="white"/>
<path opacity="0.2" d="M220.352 137.965L225.56 134.99C220.352 144.779 220.352 144.779 220.352 144.779C220.352 142.647 220.352 140.204 220.352 137.965Z" fill="white"/>
<path opacity="0.2" d="M220.355 131.319V136.45L224.842 133.887L220.355 131.319Z" fill="white"/>
<path opacity="0.6" d="M220.355 131.319L215.865 133.886L220.355 136.45V131.319Z" fill="white"/>
<path d="M220.355 127.004L215.865 133.888L220.355 131.314V127.004Z" fill="white"/>
<path opacity="0.6" d="M220.355 131.313L224.845 133.887L220.355 127V131.313Z" fill="white"/>
</svg>