<?xml version="1.0" encoding="UTF-8"?><svg width="100" id="Layer_1" xmlns="http://www.w3.org/2000/svg" viewBox="0 0 61.5 21.75"><defs><style>.cls-1{fill:#1ce7c2;}.cls-1,.cls-2,.cls-3{stroke-width:0px;}.cls-2{fill:#fff;}.cls-3{fill:transparent;}</style></defs><rect class="cls-3" width="61.5" height="21.75"/><path class="cls-2" d="M7.28,9.79c-.63-.59-1.35-.79-2.2-.79-1.04,0-1.62.32-1.62.88s.52.9,1.66.97c1.67.11,3.8.49,3.8,2.85,0,1.57-1.28,2.92-3.82,2.92-1.4,0-2.81-.23-4.11-1.58l1.08-1.57c.63.7,2.07,1.22,3.06,1.24.83.02,1.6-.41,1.6-1.06,0-.61-.5-.86-1.76-.94-1.67-.13-3.67-.74-3.67-2.76s2.12-2.77,3.75-2.77c1.39,0,2.43.27,3.46,1.17l-1.22,1.44Z"/><path class="cls-2" d="M12.7,4.93v2.52h2.45v1.89h-2.47v3.84c0,.85.47,1.26,1.15,1.26.34,0,.74-.11,1.06-.27l.61,1.87c-.63.25-1.15.36-1.82.38-1.93.07-3.19-1.03-3.19-3.24v-3.84h-1.66v-1.89h1.66v-2.29l2.2-.23Z"/><path class="cls-2" d="M23.1,7.43h2.11v8.88h-2.07l-.11-1.3c-.5,1.04-1.89,1.55-2.88,1.57-2.63.02-4.57-1.6-4.57-4.72s2.03-4.66,4.63-4.65c1.19,0,2.32.56,2.83,1.44l.07-1.22ZM17.77,11.86c0,1.69,1.17,2.7,2.63,2.7,3.46,0,3.46-5.38,0-5.38-1.46,0-2.63.99-2.63,2.68Z"/><path class="cls-2" d="M28.36,3.72v4.92c.52-.92,1.98-1.42,2.92-1.42,2.59,0,4.52,1.58,4.52,4.65s-1.96,4.65-4.57,4.65c-1.08,0-2.18-.36-2.86-1.42l-.14,1.22h-2.05V3.72h2.2ZM28.5,11.86c0,1.6,1.19,2.61,2.58,2.61s2.52-1.06,2.52-2.61-1.12-2.59-2.52-2.59-2.58,1.04-2.58,2.59Z"/><path class="cls-2" d="M38.87,3.72v12.59h-2.18V3.72h2.18Z"/><path class="cls-2" d="M41.95,12.65c.14,1.1,1.1,1.89,2.65,1.89.81,0,1.87-.31,2.38-.83l1.4,1.39c-.94.97-2.47,1.44-3.82,1.44-3.06,0-4.88-1.89-4.88-4.74s1.84-4.65,4.72-4.65,4.83,1.84,4.48,5.49h-6.93ZM46.77,10.83c-.14-1.15-1.04-1.73-2.3-1.73-1.19,0-2.16.58-2.48,1.73h4.79Z"/><rect class="cls-1" x="50.26" y="12.77" width="9.74" height="2.96"/></svg>